<svg width="80" height="77" viewBox="0 0 80 77" fill="none" xmlns="http://www.w3.org/2000/svg">
<path fill-rule="evenodd" clip-rule="evenodd" d="M6.70654 0.293089C3.63318 1.12436 1.02406 3.83185 0.237632 7.00626C0.0300697 7.84411 0.000907933 11.7222 0.000907933 38.51C0.000907933 72.1857 -0.06724 69.847 0.97728 72.0109C1.6547 73.4146 3.46959 75.2801 4.8352 75.9764C6.94545 77.0526 4.40542 76.98 39.9228 76.98C68.2152 76.98 72.2512 76.9503 73.0674 76.7367C76.0035 75.9681 78.5626 73.5068 79.3975 70.6485C79.5779 70.0313 79.7874 69.4012 79.863 69.2482C80.0246 68.9213 80.0542 7.46534 79.8926 7.6314C79.8332 7.69247 79.6919 7.36195 79.5787 6.89662C78.8286 3.81518 76.1443 1.08878 73.0674 0.283311C71.6973 -0.0754217 8.0341 -0.0659643 6.70654 0.293089ZM0.077321 38.51C0.077321 55.4809 0.0955666 62.4236 0.117867 53.9381C0.140167 45.4527 0.140167 31.5674 0.117867 23.0819C0.0955666 14.5966 0.077321 21.5391 0.077321 38.51ZM49.5135 14.2237C46.7626 14.9906 44.5567 17.0133 43.5682 19.6757C43.0675 21.0244 42.8965 23.3078 43.1914 24.7087C43.8466 27.8209 46.2979 30.4778 49.3497 31.3834C50.6489 31.7691 52.8026 31.737 54.1138 31.3127C56.9004 30.4111 59.0387 28.2125 59.8975 25.3661C60.2986 24.0371 60.3282 21.7541 59.9615 20.4409C59.1487 17.5302 56.9212 15.2209 54.0585 14.3213C52.8055 13.9275 50.7356 13.8831 49.5135 14.2237ZM26.6068 32.9209C25.9901 33.5331 24.9406 35.5776 18.2607 49.179C14.0584 57.7357 10.5596 65.0209 10.4857 65.3685C10.219 66.6215 10.6393 67.4869 11.7748 68.0227C12.3727 68.305 13.5667 68.3173 40.5525 68.3207L68.7065 68.3242L69.4024 67.9636C70.2797 67.5088 70.5773 66.9291 70.368 66.0818C70.1916 65.367 69.837 64.8204 64.1291 56.4667C59.4367 49.5986 59.2357 49.3709 57.678 49.1521C56.393 48.9716 55.5796 49.5026 52.9207 52.2584C51.6471 53.5782 50.3732 54.7794 50.0898 54.9279C48.8089 55.5984 47.1021 55.3873 46.0058 54.4228C45.6562 54.1152 41.8695 49.1588 37.5908 43.4085C33.3123 37.6584 29.613 32.8198 29.3702 32.6561C29.1274 32.4926 28.565 32.3277 28.1204 32.2897C27.3418 32.2232 27.2863 32.2463 26.6068 32.9209Z" fill="#AABBA1"/>
</svg>
