<svg width="24" height="24" viewBox="0 0 24 24" fill="none" xmlns="http://www.w3.org/2000/svg">
<path fill-rule="evenodd" clip-rule="evenodd" d="M1.35595 0.948696C0.712958 1.16961 0.269683 1.67872 0.0757632 2.41895C0.0176021 2.6409 0.00163625 3.03456 0.00163625 4.24451V5.78709H11.9537H23.9059L23.8909 4.19595L23.876 2.60486L23.7085 2.26677C23.4971 1.84008 23.0814 1.42651 22.6235 1.18726C22.0444 0.884656 21.8586 0.857147 20.3947 0.857147H19.0912V2.08234C19.0912 3.27188 19.088 3.31226 18.9796 3.47007C18.8466 3.66372 18.5802 3.81511 18.3722 3.81511C18.1643 3.81511 17.8978 3.66372 17.7648 3.47007C17.6565 3.31226 17.6533 3.27188 17.6533 2.08234V0.857147H11.6537H5.65413V2.04191C5.65413 3.35387 5.63261 3.47184 5.35772 3.66643C5.01981 3.90568 4.56072 3.82024 4.32877 3.47505C4.21929 3.31211 4.21621 3.27405 4.21621 2.08234V0.857147L2.91465 0.858774C1.79501 0.860155 1.57714 0.872726 1.35595 0.948696ZM0.0132387 14.4515L0.0264279 21.5876L0.169327 21.9235C0.361412 22.3751 0.709041 22.7471 1.13248 22.9544L1.46226 23.1158L11.6279 23.1294L21.7935 23.1429L22.1964 23.0187C22.8399 22.8205 23.4942 22.3125 23.7505 21.812C24.0112 21.3031 23.9999 21.6476 23.9999 14.2083V7.31537H12H0L0.0132387 14.4515ZM4.61288 10.1625C4.28965 10.323 4.26034 10.4528 4.27641 11.6537C4.28865 12.5701 4.30244 12.731 4.37805 12.8416C4.53022 13.0643 4.64302 13.0834 5.80595 13.0834H6.89515L7.08039 12.9148L7.26558 12.7461L7.28061 11.6355C7.30232 10.0289 7.34725 10.0761 5.79539 10.0762C4.93413 10.0763 4.76103 10.0889 4.61288 10.1625ZM10.5133 10.1625C10.2009 10.3177 10.1664 10.4599 10.1663 11.5937C10.1662 13.1343 10.1137 13.0834 11.7033 13.0834C12.8947 13.0834 13.0186 13.06 13.1315 12.8136C13.2241 12.6118 13.2131 10.5579 13.1186 10.3761C12.9811 10.1118 12.8118 10.0761 11.6958 10.0762C10.8345 10.0763 10.6614 10.0889 10.5133 10.1625ZM16.4789 10.1483C16.1902 10.2731 16.1658 10.3885 16.1658 11.6259V12.7367L16.3105 12.8977L16.4551 13.0588H17.6688C18.7916 13.0588 18.8902 13.0518 18.9865 12.9651C19.1549 12.8136 19.1898 12.5716 19.19 11.5551C19.1903 10.07 19.1958 10.0754 17.6533 10.0782C16.8996 10.0795 16.596 10.0976 16.4789 10.1483ZM4.55739 16.855C4.30159 16.9932 4.2658 17.1668 4.26589 18.2673C4.26599 19.7948 4.25925 19.7879 5.76728 19.788C6.86911 19.7881 7.02307 19.7552 7.18992 19.483C7.28239 19.3322 7.29003 19.2361 7.29018 18.2179L7.29037 17.1161L7.12179 16.9485L6.95321 16.7809L5.82023 16.7828C4.9372 16.7844 4.65859 16.8003 4.55739 16.855ZM10.4578 16.855C10.202 16.9932 10.1662 17.1668 10.1663 18.2673C10.1664 19.7985 10.1558 19.7879 11.6925 19.788C12.7733 19.7881 12.955 19.7558 13.1099 19.5359C13.1791 19.4377 13.1908 19.2543 13.1908 18.2686V17.1161L13.0222 16.9485L12.8536 16.7809L11.7206 16.7828C10.8376 16.7844 10.559 16.8003 10.4578 16.855ZM16.3344 16.9485L16.1658 17.1161V18.2327C16.1658 19.4793 16.1847 19.5677 16.481 19.7075C16.6213 19.7737 16.8274 19.7881 17.636 19.7878C18.7241 19.7875 18.9375 19.7527 19.0737 19.553C19.1564 19.4318 19.1656 19.3076 19.1656 18.3044C19.1656 16.7002 19.2471 16.7809 17.626 16.7809H16.5029L16.3344 16.9485Z" fill="#FFFAFA"/>
</svg>
