<svg width="25" height="24" viewBox="0 0 25 24" fill="none" xmlns="http://www.w3.org/2000/svg">
<path fill-rule="evenodd" clip-rule="evenodd" d="M11.3343 0.090504C11.1872 0.13752 10.9658 0.233895 10.8421 0.30477C10.5846 0.452238 0.782214 10.2087 0.445558 10.6527C0.155261 11.0354 0.0371827 11.3719 0.0108859 11.8916C-0.0238954 12.5787 0.178792 13.1097 0.657292 13.5851C1.04096 13.9663 1.51328 14.1696 2.14454 14.2255L2.52625 14.2593L2.54228 18.0632C2.55709 21.5793 2.56473 21.8867 2.64301 22.125C2.93917 23.0265 3.63104 23.6991 4.50039 23.9304C4.70889 23.9859 5.18082 23.999 6.98439 23.9992C9.10918 23.9996 9.21779 23.9954 9.36076 23.9083C9.69714 23.7032 9.67707 23.9064 9.70314 20.4396C9.72629 17.3554 9.7277 17.3182 9.82773 17.1328C9.9602 16.8874 10.1462 16.7152 10.4063 16.5975C10.6031 16.5084 10.7098 16.502 12 16.5015C13.3556 16.5009 13.3875 16.5031 13.6205 16.6116C13.7513 16.6724 13.9259 16.8041 14.0086 16.9041C14.2974 17.2534 14.2969 17.2466 14.297 20.5046C14.297 23.8003 14.2846 23.6693 14.6202 23.8936L14.7795 24L17.0109 23.9994C19.464 23.9988 19.4924 23.9961 20.0599 23.7083C20.4616 23.5046 20.9309 23.0362 21.1302 22.6402C21.4531 21.9988 21.4377 22.2154 21.4567 18.0426L21.4738 14.2648L21.9391 14.2142C22.3084 14.1741 22.4747 14.1298 22.7452 13.9996C23.2821 13.7411 23.7222 13.2496 23.8851 12.7266C23.9253 12.5976 23.9781 12.4556 24.0025 12.4108C24.0527 12.3187 24.0644 11.4981 24.0148 11.5477C23.9972 11.5654 23.947 11.4644 23.9034 11.3234C23.8598 11.1823 23.7662 10.9657 23.6954 10.8421C23.5271 10.548 13.5284 0.538254 13.1953 0.33041C12.6759 0.00626958 11.9075 -0.0927773 11.3343 0.090504ZM0.0168859 12C0.0168859 12.2449 0.0248077 12.3451 0.034464 12.2226C0.0441202 12.1002 0.0441202 11.8998 0.034464 11.7773C0.0248077 11.6548 0.0168859 11.7551 0.0168859 12Z" fill="#FFFAFA"/>
</svg>
